<?xml version="1.0" encoding="UTF-8"?>
<svg width="200px" height="76px" viewBox="0 0 200 76" version="1.1" xmlns="http://www.w3.org/2000/svg" xmlns:xlink="http://www.w3.org/1999/xlink">
    <!-- Generator: Sketch 50.2 (55047) - http://www.bohemiancoding.com/sketch -->
    <title>Slice</title>
    <desc>Created with Sketch.</desc>
    <defs></defs>
    <g id="Page-2---inverse" stroke="none" stroke-width="1" fill="none" fill-rule="evenodd">
        <g id="Group-8" fill="#FFFFFF" fill-rule="nonzero">
            <g id="Group-2" transform="translate(9.000000, 20.000000)">
                <g id="logo-1" transform="translate(0.411765, 0.176471)">
                    <path d="M121.083447,30.4186047 C123.492767,30.4676006 125.823695,29.5617842 127.567715,27.8987688 L130.785226,31.3625171 C128.659371,33.5458276 125.720931,35.1627907 121.140902,35.1627907 C113.294118,35.1627907 108.229822,29.9589604 108.229822,22.9165527 C108.164799,19.6577275 109.427317,16.5124752 111.727465,14.2030404 C114.027612,11.8936054 117.167752,10.6184234 120.426813,10.6703146 C128.216142,10.6703146 132.632011,16.5964432 132.246238,24.8207934 L113.835841,24.8207934 C114.492476,28.2352941 116.889193,30.4103967 121.083447,30.4103967 L121.083447,30.4186047 Z M126.697674,20.9056087 C126.205199,17.7209302 124.300958,15.3734611 120.484268,15.3734611 C117.157123,15.1791076 114.249473,17.5985591 113.835841,20.9056087 L126.697674,20.9056087 Z" id="Shape"></path>
                    <polygon id="Shape" points="0.180574555 30.1641587 14.3556772 15.7674419 0.517099864 15.7674419 0.517099864 11.253078 20.9220246 11.253078 20.9220246 15.8659371 6.74692202 30.2626539 21.1108071 30.2626539 21.1108071 34.7770178 0.180574555 34.7770178"></polygon>
                    <path d="M37.0259918,30.4186047 C39.4313316,30.4676258 41.7587506,29.5649766 43.502052,27.9069767 L46.7195622,31.3707251 C44.5937073,33.5540355 41.6552667,35.1709986 37.0752394,35.1709986 C29.2284541,35.1709986 24.1641587,29.9671682 24.1641587,22.9247606 C24.0968105,19.6630791 25.359444,16.5143812 27.6616434,14.2028925 C29.9638428,11.8914038 33.1074308,10.6161013 36.3693571,10.6703146 C44.1586867,10.6703146 48.5745554,16.5964432 48.1887825,24.8207934 L29.7783858,24.8207934 C30.4350205,28.2352941 32.8317373,30.4103967 37.0259918,30.4103967 L37.0259918,30.4186047 Z M42.6402188,20.9056087 C42.1477428,17.7209302 40.243502,15.3734611 36.4268126,15.3734611 C33.0996672,15.1791076 30.1920179,17.5985591 29.7783858,20.9056087 L42.6402188,20.9056087 Z" id="Shape"></path>
                    <path d="M78.7961696,22.9822161 C78.7961696,15.4555404 84.4186047,10.752394 90.6073872,10.752394 C93.6130175,10.7146682 96.4818512,12.0063944 98.4459645,14.2818058 L98.4459645,0.361149111 L103.419973,0.361149111 L103.419973,34.7113544 L98.4131327,34.7113544 L98.4131327,31.4281806 C96.4853155,33.801604 93.5829331,35.1697406 90.5253078,35.1463748 C87.3492235,35.1122512 84.3195379,33.8056248 82.1148347,31.5191516 C79.9101315,29.2326786 78.7146562,26.1574375 78.7961696,22.9822161 M98.7332421,22.9329686 C98.6251027,18.8341526 95.2330038,15.5888048 91.1334136,15.6619287 C87.0338235,15.7350526 83.7596193,19.0993065 83.7977224,23.1993716 C83.8358254,27.2994368 87.1719887,30.6022587 91.2722298,30.5991792 C93.2885098,30.6045191 95.2207255,29.7917859 96.6269866,28.3468488 C98.0332476,26.9019118 98.7932709,24.9483618 98.7332421,22.9329686" id="Shape"></path>
                    <path d="M135.512996,29.7127224 L140.043775,27.3570452 C141.267366,29.5345476 143.596196,30.8553766 146.093024,30.7879616 C148.924761,30.7879616 150.393981,29.3351573 150.393981,27.6853625 C150.393981,25.8057455 147.652531,25.3789329 144.648427,24.7715459 C140.634747,23.9507524 136.440493,22.6046512 136.440493,17.7619699 C136.440493,14.0437756 139.978112,10.6128591 145.559507,10.6538988 C149.950753,10.6538988 153.209302,12.3939808 155.056087,15.2175102 L150.853625,17.5239398 C149.672731,15.7729088 147.669916,14.7575286 145.559507,14.8399453 C142.867305,14.8399453 141.49658,16.1614227 141.49658,17.6634747 C141.49658,19.3543092 143.671682,19.8303694 147.069767,20.5772914 C150.943913,21.3980848 155.335158,22.6949385 155.335158,27.5868673 C155.335158,30.8700411 152.50342,35.2120384 145.789329,35.1627907 C140.864569,35.1627907 137.425445,33.1846785 135.447333,29.7045144" id="Shape"></path>
                    <polygon id="Shape" points="168.99316 24.2626539 165.028728 28.5882353 165.028728 34.7031464 160.021888 34.7031464 160.021888 0.361149111 165.028728 0.361149111 165.028728 22.8508892 175.658002 11.1792066 181.756498 11.1792066 172.538988 21.250342 181.994528 34.7031464 176.322846 34.7031464"></polygon>
                    <path d="M63.6525308,10.6703146 C57.7017784,10.6703146 52.7195622,14.5280438 52.7195622,20.9302326 L52.7195622,34.6703146 L57.8248974,34.6703146 L57.8248974,21.5376196 C57.8248974,17.6798906 60.0410396,15.3734611 63.8248974,15.3734611 C67.6087552,15.3734611 69.49658,17.6798906 69.49658,21.5376196 L69.49658,34.6703146 L74.6019152,34.6703146 L74.6019152,20.9630644 C74.6019152,14.5608755 69.6196991,10.7031464 63.6689467,10.7031464" id="Shape"></path>
                </g>
            </g>
        </g>
    </g>
</svg>