<?xml version="1.0" encoding="UTF-8"?>
<svg width="200px" height="76px" viewBox="0 0 200 76" version="1.1" xmlns="http://www.w3.org/2000/svg" xmlns:xlink="http://www.w3.org/1999/xlink">
    <!-- Generator: Sketch 50.2 (55047) - http://www.bohemiancoding.com/sketch -->
    <title>Slice Copy 2</title>
    <desc>Created with Sketch.</desc>
    <defs></defs>
    <g id="Page-2---inverse" stroke="none" stroke-width="1" fill="none" fill-rule="evenodd">
        <g id="coinbase" fill="#FFFFFF">
            <g id="Coinbase" transform="translate(9.000000, 18.000000)">
                <path d="M170.618553,15.6115636 C166.455469,15.6115636 163.717789,18.7791273 163.627287,24.3449891 L176.569047,22.5575782 C176.523796,17.8967345 174.193375,15.6115636 170.618553,15.6115636 Z M181.772902,24.2771127 L181.772902,23.0100873 C181.637149,16.0414473 177.541942,11.6521091 170.73168,11.6521091 C163.242655,11.6521091 158.694938,17.3537236 158.694938,25.5215127 C158.694938,34.0513091 163.401033,39.4587927 171.840327,39.4587927 C175.505651,39.4587927 179.080473,38.6669018 181.162015,37.58088 L179.578233,33.5082982 C177.745571,34.5038182 174.872138,35.1373309 172.202335,35.1373309 C167.699869,35.1373309 164.577556,32.7164073 164.034545,27.8971855 L181.772902,25.4083855 C181.795527,25.0237527 181.818153,24.63912 181.818153,24.2544873 L181.772902,24.2771127 Z M144.983913,39.4587927 C141.8616,39.4587927 138.580909,38.6216509 136.657745,37.58088 L138.490407,33.4177964 C139.87056,34.2549382 142.811869,35.1599564 144.825535,35.1599564 C147.744218,35.1599564 149.690007,33.7119273 149.690007,31.4946327 C149.690007,29.0737091 147.653716,28.12344 144.938662,27.12792 C141.36384,25.7930182 137.359135,24.1639855 137.359135,19.1411345 C137.359135,14.7291709 140.775578,11.6521091 146.726073,11.6521091 C149.938887,11.6521091 152.631316,12.444 154.509229,13.5300218 L152.834945,17.3084727 C151.635796,16.5618327 149.260124,15.7246909 147.33696,15.7246909 C144.508778,15.7246909 142.924996,17.2179709 142.924996,19.1411345 C142.924996,21.5620582 144.916036,22.4218255 147.540589,23.39472 C151.251164,24.7748727 155.368996,26.3134036 155.368996,31.5172582 C155.368996,36.33648 151.703673,39.4587927 145.006538,39.4587927 L144.983913,39.4587927 Z M127.630189,25.4762618 C122.177455,25.7703927 116.72472,26.2229018 116.72472,30.9742473 C116.72472,33.8024291 118.896764,35.5445891 123.014596,35.5445891 C124.756756,35.5445891 126.793047,35.2504582 127.630189,34.8432 L127.630189,25.4762618 Z M123.172975,39.4587927 C115.48032,39.4587927 111.633993,36.33648 111.633993,31.0873745 C111.633993,23.6436 119.575527,22.3086982 127.652815,21.8788145 L127.652815,20.2045309 C127.652815,16.8333382 125.412895,15.6341891 121.996451,15.6341891 C119.4624,15.6341891 116.385338,16.42608 114.620553,17.2632218 L113.2404,13.5526473 C115.367193,12.6023782 118.987265,11.6747345 122.562087,11.6747345 C128.965091,11.6747345 132.834044,14.1635345 132.834044,20.7475418 L132.834044,37.6035055 C130.91088,38.6442764 126.974051,39.4814182 123.218225,39.4814182 L123.172975,39.4587927 Z M95.9545527,16.0188218 C94.4612727,16.0188218 92.7417382,16.3582036 91.7009673,16.9012145 L91.7009673,34.4585673 C92.4928582,34.7979491 94.0313891,35.1599564 95.56992,35.1599564 C99.8913818,35.1599564 103.058945,32.1960218 103.058945,25.3405091 C103.058945,19.4805164 100.276015,16.0188218 95.9771782,16.0188218 L95.9545527,16.0188218 Z M95.2531636,39.4587927 C91.7914691,39.4587927 88.3524,38.6216509 86.2708582,37.58088 L86.2708582,0 L91.6783418,0 L91.6783418,12.8965091 C92.9679927,12.3082473 95.0495345,11.8104873 96.8821964,11.8104873 C103.78296,11.8104873 108.421178,16.7654618 108.421178,24.9558764 C108.421178,35.0242036 103.217324,39.4814182 95.2305382,39.4814182 L95.2531636,39.4587927 Z M75.4332655,38.9157818 L75.4332655,21.0642982 C75.4332655,17.9419855 73.5553527,16.0188218 69.8221527,16.0188218 C67.8311127,16.0188218 65.9984509,16.3582036 64.9124291,16.8107127 L64.9124291,38.9157818 L59.5049455,38.9157818 L59.5049455,13.5300218 C62.1747491,12.444 65.5911927,11.6521091 69.7542764,11.6521091 C77.2433018,11.6521091 80.8633745,14.9328 80.8633745,20.5665382 L80.8633745,38.9157818 L75.41064,38.9157818 L75.4332655,38.9157818 Z M48.5316,38.9157818 L48.5316,12.19512 L53.9843345,12.19512 L53.9843345,38.9157818 L48.5316,38.9157818 Z M51.2466545,7.33064727 C49.4592436,7.33064727 48.03384,5.95049455 48.03384,4.25358545 C48.03384,2.57930182 49.4818691,1.17652364 51.2466545,1.17652364 C53.0340655,1.17652364 54.4594691,2.55667636 54.4594691,4.25358545 C54.4594691,5.92786909 53.01144,7.33064727 51.2466545,7.33064727 Z M32.2186473,15.9735709 C28.0103127,15.9735709 25.9287709,19.7520218 25.9287709,25.4988873 C25.9287709,31.2457527 28.0103127,35.0694545 32.2186473,35.0694545 C36.4269818,35.0694545 38.5085236,31.2457527 38.5085236,25.4988873 C38.5085236,19.7520218 36.4269818,15.9735709 32.2186473,15.9735709 Z M32.2186473,39.4587927 C24.63912,39.4587927 20.4760364,33.4630473 20.4760364,25.5215127 C20.4760364,17.5799782 24.63912,11.6521091 32.2186473,11.6521091 C39.7981745,11.6521091 43.9612582,17.6026036 43.9612582,25.5215127 C43.9612582,33.4630473 39.7981745,39.4587927 32.2186473,39.4587927 Z M11.7426109,39.4587927 C5.79211636,39.4587927 0,35.2052073 0,25.5215127 C0,15.8604436 5.79211636,11.6521091 11.7426109,11.6521091 C14.6612945,11.6521091 16.9464655,12.3987491 18.5754982,13.4847709 L16.7880873,17.3989745 C15.7020655,16.6070836 14.0730327,16.1093236 12.4213745,16.1093236 C8.84655273,16.1093236 5.58848727,18.9375055 5.58848727,25.4762618 C5.58848727,32.0150182 8.95968,34.8884509 12.4213745,34.8884509 C14.0504073,34.8884509 15.7020655,34.3906909 16.7880873,33.5988 L18.5754982,37.6035055 C16.9012145,38.7347782 14.6612945,39.4361673 11.7426109,39.4361673 L11.7426109,39.4587927 Z" id="Shape"></path>
            </g>
        </g>
    </g>
</svg>