<?xml version="1.0" encoding="UTF-8"?>
<svg width="200px" height="76px" viewBox="0 0 200 76" version="1.1" xmlns="http://www.w3.org/2000/svg" xmlns:xlink="http://www.w3.org/1999/xlink">
    <!-- Generator: Sketch 50 (54983) - http://www.bohemiancoding.com/sketch -->
    <title>Slice</title>
    <desc>Created with Sketch.</desc>
    <defs></defs>
    <g id="Page-2---inverse" stroke="none" stroke-width="1" fill="none" fill-rule="evenodd">
        <g id="Group-13" transform="translate(0.000000, -21.000000)">
            <g id="Group-6">
                <g id="Rectangle" opacity="0" fill="#D8D8D8">
                    <rect x="0" y="0" width="200" height="118"></rect>
                </g>
                <g id="logo-5" transform="translate(3.529412, 40.000000)" fill="#FFFFFF" fill-rule="nonzero">
                    <path d="M22.5087074,7.18363003 L11.2543537,14.3672601 L22.5087074,21.5508901 L11.2543537,28.7345201 L1.42108547e-14,21.4910265 L11.2543537,14.3073965 L1.42108547e-14,7.18363003 L11.2543537,0 L22.5087074,7.18363003 Z M11.1944901,31.0093363 L22.4488438,23.8257063 L33.7031976,31.0093363 L22.4488438,38.1929663 L11.1944901,31.0093363 Z M22.5087074,21.4910265 L33.7630611,14.3073965 L22.5087074,7.18363003 L33.7031976,0 L44.9575513,7.18363003 L33.7031976,14.3672601 L44.9575513,21.5508901 L33.7031976,28.7345201 L22.5087074,21.4910265 Z" id="Shape"></path>
                    <path d="M53.7574981,7.18363003 L62.8567628,7.18363003 C68.6635304,7.18363003 73.4526171,10.5359907 73.4526171,18.1985294 L73.4526171,19.8148462 C73.4526171,27.5372485 68.9628483,31.0093363 63.0363535,31.0093363 L53.7574981,31.0093363 L53.7574981,7.18363003 Z M58.8459027,11.493808 L58.8459027,26.6392947 L62.7370356,26.6392947 C66.0295327,26.6392947 68.2444853,24.4842057 68.2444853,19.695119 L68.2444853,18.4379837 C68.2444853,13.6488971 65.9098055,11.493808 62.5574449,11.493808 L58.8459027,11.493808 Z M76.1464783,11.7332624 L80.217202,11.7332624 L80.8757014,16.2230312 C81.653928,13.1699884 83.6294263,11.5536716 87.2212413,11.5536716 L88.4783765,11.5536716 L88.4783765,16.7019398 L86.3831511,16.7019398 C82.2525639,16.7019398 81.2348829,18.1386658 81.2348829,22.2093895 L81.2348829,31.0691999 L76.2063419,31.0691999 L76.2063419,11.7332624 L76.1464783,11.7332624 Z M89.4960575,21.7903444 L89.4960575,21.2515722 C89.4960575,14.7863051 93.6266447,11.2543537 99.2538216,11.2543537 C105.000726,11.2543537 109.011586,14.7863051 109.011586,21.2515722 L109.011586,21.7903444 C109.011586,28.1358843 105.120453,31.5481086 99.2538216,31.5481086 C93.0280089,31.488245 89.4960575,28.1358843 89.4960575,21.7903444 Z M103.863318,21.7304808 L103.863318,21.2515722 C103.863318,17.6597572 102.06741,15.5046682 99.193958,15.5046682 C96.3803696,15.5046682 94.5245985,17.4801664 94.5245985,21.2515722 L94.5245985,21.7304808 C94.5245985,25.2025687 96.320506,27.178067 99.193958,27.178067 C102.06741,27.1182034 103.863318,25.2025687 103.863318,21.7304808 Z M111.645583,11.7332624 L115.836034,11.7332624 L116.314943,15.384941 C117.332624,12.9305341 119.487713,11.2543537 122.660483,11.2543537 C127.569297,11.2543537 130.80193,14.7863051 130.80193,21.3114358 L130.80193,21.850208 C130.80193,28.1957479 127.210115,31.5481086 122.660483,31.5481086 C119.60744,31.5481086 117.512215,30.1712461 116.494534,27.9562935 L116.494534,37.7140577 L111.58572,37.7140577 L111.645583,11.7332624 Z M125.713526,21.7304808 L125.713526,21.3114358 C125.713526,17.4801664 123.738027,15.5645317 121.10403,15.5645317 C118.290441,15.5645317 116.43467,17.7196207 116.43467,21.3114358 L116.43467,21.6706173 C116.43467,25.0828415 118.230578,27.2379305 121.044166,27.2379305 C123.917618,27.178067 125.713526,25.3222959 125.713526,21.7304808 Z M138.225015,27.4773849 L137.805969,31.0093363 L133.495791,31.0093363 L133.495791,5.26799536 L138.404605,5.26799536 L138.404605,15.1454866 C139.48215,12.6312161 141.637239,11.2543537 144.690282,11.2543537 C149.299777,11.3142173 152.712002,14.4869872 152.712002,20.8923907 L152.712002,21.4910265 C152.712002,27.89643 149.479368,31.5481086 144.570554,31.5481086 C141.337921,31.488245 139.242695,29.9916554 138.225015,27.4773849 Z M147.563734,21.4910265 L147.563734,21.0121178 C147.563734,17.4801664 145.648099,15.5046682 142.954238,15.5046682 C140.200513,15.5046682 138.284878,17.7196207 138.284878,21.0719814 L138.284878,21.4910265 C138.284878,25.0828415 140.140649,27.178067 142.894374,27.178067 C145.82769,27.178067 147.563734,25.3222959 147.563734,21.4910265 Z M154.867091,21.7903444 L154.867091,21.2515722 C154.867091,14.7863051 158.997678,11.2543537 164.624855,11.2543537 C170.371759,11.2543537 174.382619,14.7863051 174.382619,21.2515722 L174.382619,21.7903444 C174.382619,28.1358843 170.431622,31.5481086 164.624855,31.5481086 C158.399042,31.488245 154.867091,28.1358843 154.867091,21.7903444 Z M169.294214,21.7304808 L169.294214,21.2515722 C169.294214,17.6597572 167.498307,15.5046682 164.624855,15.5046682 C161.811266,15.5046682 159.955495,17.4801664 159.955495,21.2515722 L159.955495,21.7304808 C159.955495,25.2025687 161.751403,27.178067 164.624855,27.178067 C167.498307,27.1182034 169.294214,25.2025687 169.294214,21.7304808 Z M180.967613,21.0121178 L174.203028,11.7332624 L180.009796,11.7332624 L183.900929,17.54003 L187.851925,11.7332624 L193.598829,11.7332624 L186.714517,20.9522543 L193.958011,31.0093363 L188.27097,31.0093363 L183.841065,24.6039329 L179.530887,31.0093363 L173.604392,31.0093363 L180.967613,21.0121178 Z" id="Shape"></path>
                </g>
            </g>
        </g>
    </g>
</svg>