<?xml version="1.0" encoding="UTF-8"?>
<svg width="200px" height="76px" viewBox="0 0 200 76" version="1.1" xmlns="http://www.w3.org/2000/svg" xmlns:xlink="http://www.w3.org/1999/xlink">
    <!-- Generator: Sketch 50.2 (55047) - http://www.bohemiancoding.com/sketch -->
    <title>Slice Copy</title>
    <desc>Created with Sketch.</desc>
    <defs></defs>
    <g id="Page-2---inverse" stroke="none" stroke-width="1" fill="none" fill-rule="evenodd">
        <g id="Group-facebook" fill="#FFFFFF" fill-rule="nonzero">
            <g id="Group" transform="translate(10.000000, 20.000000)">
                <path d="M92.9364306,17.4949042 C91.4456943,17.4949042 90.3710914,17.9876605 89.2818014,18.489877 L89.2818014,29.8500067 C90.3253983,29.9503678 90.923488,29.9503678 91.9140483,29.9503678 C95.4919785,29.9503678 95.9823629,28.2985237 95.9823629,25.9918649 L95.9823629,20.5657875 C95.9823629,18.8629404 95.421807,17.4949042 92.9364306,17.4949042 Z M69.1756288,16.8750513 C66.6935162,16.8750513 66.1264326,18.2492573 66.1264326,19.9504592 L66.1264326,20.906357 L72.2211531,20.906357 L72.2211531,19.9504592 C72.2211532,18.2492573 71.6548855,16.8750513 69.1756288,16.8750513 Z M23.1463933,28.699968 C23.1463933,30.0457931 23.7763048,30.7450299 25.1666796,30.7450299 C26.6582317,30.7450299 27.5410871,30.2547416 28.6295611,29.751291 L28.6295611,27.0563502 L25.3682186,27.0563502 C23.8248537,27.0563502 23.1463933,27.3459165 23.1463933,28.699968 Z M116.049778,17.4949042 C113.563586,17.4949042 112.701945,18.8629404 112.701945,20.5657876 L112.701945,26.7815912 C112.701945,28.4893743 113.563586,29.8615236 116.049778,29.8615236 C118.529443,29.8615236 119.397611,28.4893743 119.397611,26.7815912 L119.397611,20.5657876 C119.397611,18.8629404 118.529443,17.4949042 116.049778,17.4949042 Z M10.9614399,35.6693021 L3.65258937,35.6693021 L3.65258937,17.8325945 L0,17.8325945 L0,11.6863032 L3.65258937,11.6863032 L3.65258937,7.99597823 C3.65258937,2.98162791 5.71408099,0 11.5725847,0 L16.4503193,0 L16.4503193,6.14752527 L13.4015311,6.14752527 C11.1205496,6.14752527 10.9704153,7.00635252 10.9704153,8.6096614 L10.9614398,11.6863033 L16.4845891,11.6863033 L15.8383586,17.8325945 L10.9614398,17.8325945 L10.9614398,35.6693021 Z M35.9412674,35.7153694 L29.8498107,35.7153694 L29.5858516,34.1622412 C26.8042863,35.7153694 24.3217657,35.9670947 22.6841589,35.9670947 C18.2168459,35.9670947 15.8383586,32.9579086 15.8383586,28.7970384 C15.8383586,23.8875736 18.6129884,22.1353685 23.5772135,22.1353685 L28.629561,22.1353685 L28.629561,21.0741739 C28.629561,18.5688496 28.3447953,17.8325945 24.5224888,17.8325945 L18.2727383,17.8325945 L18.8838831,11.6863032 L25.7154042,11.6863032 C34.1025295,11.6863032 35.9412674,14.3573877 35.9412674,21.1235318 L35.9412674,35.7153694 Z M56.6565449,18.2833965 C52.8656524,17.6285818 51.7771783,17.4846213 49.9531275,17.4846213 C46.6766899,17.4846213 45.6865375,18.2134728 45.6865375,21.0182349 L45.6865375,26.3242081 C45.6865375,29.1293815 46.6766899,29.8615236 49.9531275,29.8615236 C51.7771783,29.8615236 52.8656524,29.7150952 56.6565449,29.05699 L56.6565449,35.0523284 C53.3360462,35.8025684 51.1729691,35.9999999 49.3444306,35.9999999 C41.4970547,35.9999999 38.377687,31.8391298 38.377687,25.8289839 L38.377687,21.5233307 C38.377687,15.5078378 41.4970546,11.3399752 49.3444306,11.3399752 C51.1729692,11.3399752 53.3360462,11.5382295 56.6565449,12.2917599 L56.6565449,18.2833965 Z M79.5300038,25.828984 L66.1264327,25.828984 L66.1264327,26.3242082 C66.1264327,29.1293816 67.117401,29.8615237 70.3930226,29.8615237 C73.3377775,29.8615237 75.1349021,29.7150953 78.918859,29.0569901 L78.918859,35.0523285 C75.2695334,35.8025684 73.3679675,36 69.7871816,36 C61.9393977,36 58.8183981,31.8391299 58.8183981,25.828984 L58.8183981,20.9063571 C58.8183981,15.6476852 61.1340574,11.3399753 69.1756288,11.3399753 C77.2172003,11.3399753 79.5300038,15.5975047 79.5300038,20.9063571 L79.5300038,25.828984 Z M103.28999,25.9425072 C103.28999,31.7519309 101.643407,35.9884831 91.6668162,35.9884831 C88.0644076,35.9884831 85.9511033,35.6693021 81.9749907,35.0523284 L81.9749907,1.84557381 L89.2818014,0.616150987 L89.2818014,12.2317078 C90.8606599,11.6402358 92.9046087,11.3399752 94.7649692,11.3399752 C102.072596,11.3399752 103.28999,14.6428407 103.28999,19.9504592 L103.28999,25.9425072 Z M126.712581,26.0691924 C126.712581,31.0806636 124.660473,35.9407704 116.074256,35.9407704 C107.48396,35.9407704 105.393502,31.0806636 105.393502,26.0691924 L105.393502,21.2304739 C105.393502,16.2165349 107.48396,11.3556053 116.074256,11.3556053 C124.660473,11.3556053 126.712581,16.2165349 126.712581,21.2304739 L126.712581,26.0691924 Z M150.118854,26.0691924 C150.118854,31.0806636 148.064298,35.9407704 139.479713,35.9407704 C130.889417,35.9407704 128.798959,31.0806636 128.798959,26.0691924 L128.798959,21.2304739 C128.798959,16.2165349 130.889417,11.3556053 139.479713,11.3556053 C148.064298,11.3556053 150.118854,16.2165349 150.118854,21.2304739 L150.118854,26.0691924 Z M174.139535,35.6693021 L166.219132,35.6693021 L159.521018,24.3959599 L159.521018,35.6693021 L152.211759,35.6693021 L152.211759,1.84557381 L159.521018,0.616150987 L159.521018,22.3903843 L166.219132,11.6863032 L174.139535,11.6863032 L166.827013,23.3676706 L174.139535,35.6693021 Z M139.455235,17.4949042 C136.973122,17.4949042 136.111482,18.8629404 136.111482,20.5657876 L136.111482,26.7815912 C136.111482,28.4893743 136.973122,29.8615236 139.455235,29.8615236 C141.934084,29.8615236 142.811227,28.4893743 142.811227,26.7815912 L142.811227,20.5657876 C142.811227,18.8629404 141.934083,17.4949042 139.455235,17.4949042 Z" id="Shape"></path>
                <path d="M178.758758,30.9767442 C179.915328,30.9767442 180.837209,31.9058018 180.837209,33.0659908 C180.837209,34.2443077 179.915328,35.1627907 178.750322,35.1627907 C177.591451,35.1627907 176.651163,34.2443077 176.651163,33.0659908 C176.651163,31.9058018 177.591451,30.9767442 178.750322,30.9767442 L178.758758,30.9767442 Z M178.750322,31.3015366 C177.81847,31.3015366 177.055349,32.0916133 177.055349,33.0659907 C177.055349,34.0584961 177.81847,34.8379981 178.758758,34.8379981 C179.699813,34.8470621 180.45143,34.0584961 180.45143,33.0750547 C180.45143,32.0916132 179.699813,31.3015365 178.758758,31.3015365 L178.750322,31.3015365 Z M178.354572,34.2820743 L177.97723,34.2820744 L177.97723,31.9511216 C178.175105,31.9239298 178.363776,31.8967378 178.646016,31.8967378 C179.004184,31.8967378 179.238106,31.9707602 179.381526,32.0719747 C179.520346,32.1746997 179.595507,32.3318087 179.595507,32.5538761 C179.595507,32.8620513 179.389963,33.0463522 179.136101,33.1218853 L179.136101,33.1400133 C179.342412,33.1777798 179.483532,33.3620807 179.531083,33.7050012 C179.586304,34.0675602 179.643058,34.2065412 179.680639,34.2820744 L179.285657,34.2820744 C179.229669,34.2065413 179.172914,33.9935378 179.125363,33.6868733 C179.070142,33.3907834 178.918285,33.2789943 178.616104,33.2789943 L178.354572,33.2789943 L178.354572,34.2820743 Z M178.354572,32.9919683 L178.627609,32.9919683 C178.936692,32.9919683 179.199758,32.8801793 179.199758,32.5916427 C179.199758,32.3877032 179.050201,32.1837637 178.627609,32.1837637 C178.504129,32.1837637 178.418997,32.1928277 178.354572,32.2018916 L178.354572,32.9919683 Z" id="Shape"></path>
            </g>
        </g>
    </g>
</svg>