<?xml version="1.0" encoding="UTF-8"?>
<svg width="44px" height="37px" viewBox="0 0 44 37" version="1.1" xmlns="http://www.w3.org/2000/svg" xmlns:xlink="http://www.w3.org/1999/xlink">
    <!-- Generator: Sketch 50 (54983) - http://www.bohemiancoding.com/sketch -->
    <title>frontend-icon</title>
    <desc>Created with Sketch.</desc>
    <defs></defs>
    <g id="Page-1" stroke="none" stroke-width="1" fill="none" fill-rule="evenodd" stroke-linecap="round" stroke-linejoin="round">
        <g id="Landing" transform="translate(-477.000000, -608.000000)" stroke="#FFFFFF" stroke-width="1.5625">
            <g id="Section-skills" transform="translate(292.000000, 424.000000)">
                <g id="content" transform="translate(0.000000, 162.000000)">
                    <g id="Col-L">
                        <g id="icon" transform="translate(167.000000, 0.000000)">
                            <g id="frontend-icon" transform="translate(15.000000, 15.000000)">
                                <path d="M46.09375,16.40625 L3.90625,16.40625 L46.09375,16.40625 Z" id="Path"></path>
                                <path d="M43.75,8.59375 L6.25,8.59375 C4.95546875,8.59375 3.90625,9.64296875 3.90625,10.9375 L3.90625,40.625 C3.90625,41.9195312 4.95546875,42.96875 6.25,42.96875 L43.75,42.96875 C45.0445313,42.96875 46.09375,41.9195312 46.09375,40.625 L46.09375,10.9375 C46.09375,9.64296875 45.0445313,8.59375 43.75,8.59375 L43.75,8.59375 Z" id="Path"></path>
                                <path d="M41.40625,12.5 C41.40625,12.9320312 41.0570312,13.28125 40.625,13.28125 C40.1929688,13.28125 39.84375,12.9320312 39.84375,12.5 C39.84375,12.0679688 40.1929688,11.71875 40.625,11.71875 C41.0570312,11.71875 41.40625,12.0679688 41.40625,12.5 L41.40625,12.5 Z" id="Path"></path>
                                <path d="M36.71875,12.5 C36.71875,12.9320312 36.3695312,13.28125 35.9375,13.28125 C35.5054688,13.28125 35.15625,12.9320312 35.15625,12.5 C35.15625,12.0679688 35.5054688,11.71875 35.9375,11.71875 C36.3695312,11.71875 36.71875,12.0679688 36.71875,12.5 L36.71875,12.5 Z" id="Path"></path>
                                <path d="M32.03125,12.5 C32.03125,12.9320312 31.6820312,13.28125 31.25,13.28125 C30.8179688,13.28125 30.46875,12.9320312 30.46875,12.5 C30.46875,12.0679688 30.8179688,11.71875 31.25,11.71875 C31.6820312,11.71875 32.03125,12.0679688 32.03125,12.5 L32.03125,12.5 Z" id="Path"></path>
                                <polyline id="Path" points="19.53125 25.78125 14.84375 29.6875 19.53125 33.59375"></polyline>
                                <polyline id="Path" points="30.46875 25.78125 35.15625 29.6875 30.46875 33.59375"></polyline>
                                <path d="M22.65625,36.71875 L27.34375,22.65625 L22.65625,36.71875 Z" id="Path"></path>
                            </g>
                        </g>
                    </g>
                </g>
            </g>
        </g>
    </g>
</svg>