<?xml version="1.0" encoding="UTF-8"?>
<svg width="200px" height="76px" viewBox="0 0 200 76" version="1.1" xmlns="http://www.w3.org/2000/svg" xmlns:xlink="http://www.w3.org/1999/xlink">
    <!-- Generator: Sketch 50 (54983) - http://www.bohemiancoding.com/sketch -->
    <title>Slice</title>
    <desc>Created with Sketch.</desc>
    <defs></defs>
    <g id="Page-1" stroke="none" stroke-width="1" fill="none" fill-rule="evenodd">
        <g id="Google" fill="#434E5E">
            <g id="google" transform="translate(23.000000, 13.000000)">
                <path d="M37.725,17.705 L19.6916667,17.705 L19.6916667,22.9766667 L32.525,22.9766667 C31.8983333,30.3666667 25.7083333,33.5183333 19.865,33.5183333 C12.3816667,33.5183333 5.865,27.685 5.865,19.5016667 C5.865,11.535 12.0816667,5.385 19.8816667,5.385 C25.8816667,5.385 29.4316667,9.20166667 29.4316667,9.20166667 L33.1483333,5.385 C33.1483333,5.385 28.3833333,0.0833333333 19.6833333,0.0833333333 C8.61666667,0.0833333333 0.05,9.36666667 0.05,19.3916667 C0.05,29.2166667 8.11,38.7983333 19.975,38.7983333 C30.4083333,38.7983333 38.0483333,31.6983333 38.0483333,21.1983333 C38.0483333,18.9816667 37.715,17.6983333 37.715,17.6983333 L37.725,17.705 Z M52.9816667,13.8816667 C45.6483333,13.8816667 40.3816667,19.5816667 40.3816667,26.215 C40.3816667,32.9483333 45.4816667,38.7483333 53.065,38.7483333 C59.9316667,38.7483333 65.5483333,33.5316667 65.5483333,26.3483333 C65.5483333,18.0983333 58.9983333,13.8483333 52.9816667,13.8483333 L52.9816667,13.8816667 Z M53.0483333,18.765 C56.6483333,18.765 60.065,21.665 60.065,26.3316667 C60.065,30.8983333 56.6483333,33.8816667 53.015,33.8816667 C49.015,33.8816667 45.865,30.6983333 45.865,26.2983333 C45.865,21.9816667 48.9816667,18.765 53.0316667,18.765 L53.0483333,18.765 Z M80.215,13.865 C72.865,13.865 67.615,19.565 67.615,26.1983333 C67.615,32.9316667 72.715,38.7316667 80.2816667,38.7316667 C87.1316667,38.7316667 92.765,33.515 92.765,26.3316667 C92.765,18.0816667 86.215,13.8316667 80.1983333,13.8316667 L80.215,13.865 Z M80.2816667,18.7483333 C83.8816667,18.7483333 87.2983333,21.6483333 87.2983333,26.315 C87.2983333,30.8816667 83.8816667,33.865 80.2483333,33.865 C76.2483333,33.865 73.0816667,30.6816667 73.0816667,26.2816667 C73.0816667,21.965 76.1983333,18.7483333 80.2483333,18.7483333 L80.2816667,18.7483333 Z M107.081667,13.8816667 C100.348333,13.8816667 95.0483333,19.7316667 95.0483333,26.315 C95.0483333,33.7983333 101.181667,38.765 106.948333,38.765 C110.515,38.765 112.415,37.3483333 113.815,35.7316667 L113.815,38.1816667 C113.815,42.465 111.181667,45.0483333 107.215,45.0483333 C103.381667,45.0483333 101.465,42.215 100.798333,40.615 L95.9816667,42.615 C97.6816667,46.1983333 101.131667,49.9316667 107.248333,49.9316667 C113.948333,49.9316667 119.048333,45.7316667 119.048333,36.9483333 L119.048333,14.3333333 L113.833333,14.3333333 L113.833333,16.75 C112.216667,15.02 110.006667,13.8916667 107.075,13.8916667 L107.081667,13.8816667 Z M107.565,18.7483333 C110.865,18.7483333 114.248333,21.5483333 114.248333,26.3316667 C114.248333,31.1816667 110.865,33.865 107.481667,33.865 C103.881667,33.865 100.548333,30.9816667 100.548333,26.3816667 C100.548333,21.5983333 104.015,18.7483333 107.548333,18.7483333 L107.565,18.7483333 Z M141.965,13.8483333 C135.615,13.8483333 130.281667,18.865 130.281667,26.265 C130.281667,34.0983333 136.215,38.7483333 142.565,38.7483333 C147.865,38.7483333 151.115,35.865 153.065,33.2816667 L148.731667,30.415 C147.598333,32.1483333 145.731667,33.8316667 142.598333,33.8316667 C139.065,33.8316667 137.448333,31.915 136.448333,30.0483333 L153.248333,23.1316667 L152.365,21.115 C150.748333,17.1316667 146.965,13.815 141.948333,13.815 L141.965,13.8483333 Z M142.181667,18.6316667 C144.465,18.6316667 146.115,19.8316667 146.815,21.2816667 L135.598333,25.9316667 C135.115,22.315 138.548333,18.615 142.181667,18.615 L142.181667,18.6316667 Z M122.6,38.0333333 L127.738333,38.0333333 L127.738333,1.36666667 L122.605,1.36666667 L122.6,38.0333333 Z" id="Shape"></path>
            </g>
        </g>
    </g>
</svg>