<?xml version="1.0" encoding="UTF-8"?>
<svg width="200px" height="76px" viewBox="0 0 200 76" version="1.1" xmlns="http://www.w3.org/2000/svg" xmlns:xlink="http://www.w3.org/1999/xlink">
    <!-- Generator: Sketch 50 (54983) - http://www.bohemiancoding.com/sketch -->
    <title>Slice</title>
    <desc>Created with Sketch.</desc>
    <defs></defs>
    <g id="Page-2---inverse" stroke="none" stroke-width="1" fill="none" fill-rule="evenodd">
        <g id="Group-12" transform="translate(0.000000, -21.000000)">
            <g id="Group-5" fill="#D8D8D8" opacity="0">
                <g id="Rectangle">
                    <rect x="0" y="0" width="200" height="118"></rect>
                </g>
            </g>
            <g id="Spotify_logo_with_text" transform="translate(12.000000, 32.000000)" fill="#434E5E" fill-rule="nonzero">
                <path d="M27.4986905,0.0906845238 C12.3576488,0.0906845238 0.082827381,12.3651786 0.082827381,27.5062202 C0.082827381,42.6479167 12.3576488,54.9214286 27.4986905,54.9214286 C42.641369,54.9214286 54.914881,42.6479167 54.914881,27.5062202 C54.914881,12.3661607 42.641369,0.0919940476 27.4983631,0.0919940476 L27.4986905,0.0906845238 Z M40.0714286,39.631756 C39.5803571,40.4371131 38.5261905,40.6924702 37.7208333,40.198125 C31.283869,36.2662798 23.1805357,35.3758036 13.637381,37.5561607 C12.7177679,37.7656845 11.8011012,37.189494 11.5915774,36.2695536 C11.3810714,35.3496131 11.9549702,34.4329464 12.876875,34.2234226 C23.3203274,31.8374702 32.2784524,32.8647917 39.5050595,37.2811607 C40.3104167,37.775506 40.5657738,38.8263988 40.0714286,39.631756 Z M43.4270833,32.1668155 C42.8083333,33.1725298 41.4922619,33.4900893 40.4872024,32.8713393 C33.1178571,28.3416964 21.8844345,27.029881 13.1679167,29.6757738 C12.0374702,30.0172321 10.8435119,29.3801488 10.5004167,28.2516667 C10.1599405,27.1212202 10.7973512,25.9295536 11.9258333,25.5858036 C21.8824702,22.5647321 34.2604167,24.028125 42.7232143,29.2285714 C43.7282738,29.8473214 44.0458333,31.1633929 43.4270833,32.1671429 L43.4270833,32.1668155 Z M43.7151786,24.3934821 C34.8791667,19.1452381 20.3008929,18.6626786 11.8646131,21.223125 C10.5099107,21.6339881 9.07729167,20.8692262 8.66675595,19.5145238 C8.25622024,18.1591667 9.02032738,16.7275298 10.3760119,16.3156845 C20.0602679,13.3758036 36.1592262,13.9438095 46.3322619,19.983006 C47.5533929,20.7061905 47.9527976,22.2799107 47.2292857,23.4967857 C46.5090476,24.7152976 44.9310714,25.116994 43.7164881,24.3934821 L43.7151786,24.3934821 Z M74.6723214,25.3991964 C69.9383929,24.2703869 69.0970238,23.478125 69.0970238,21.8133929 C69.0970238,20.2406548 70.5767857,19.1822321 72.7800595,19.1822321 C74.9145833,19.1822321 77.0294643,19.9859524 79.2491071,21.6405357 C79.3145833,21.690625 79.3997024,21.7105952 79.4815476,21.6975 C79.5666667,21.6850595 79.6386905,21.6395536 79.6877976,21.571131 L81.9991071,18.3130357 C82.0940476,18.1788095 82.0678571,17.9938393 81.9401786,17.891369 C79.2982143,15.7722321 76.3255952,14.7419643 72.8488095,14.7419643 C67.7383929,14.7419643 64.1666667,17.8091964 64.1666667,22.1977381 C64.1666667,26.9038393 67.2473214,28.5702083 72.5705357,29.8564881 C77.0982143,30.8998512 77.8642857,31.7739583 77.8642857,33.3362202 C77.8642857,35.0680655 76.3190476,36.1451488 73.8309524,36.1451488 C71.0678571,36.1451488 68.8122024,35.2121131 66.291369,33.031756 C66.2291667,32.9761012 66.1440476,32.9531845 66.0654762,32.9564583 C65.9803571,32.963006 65.9050595,33.0022917 65.8526786,33.064494 L63.2598214,36.1484226 C63.1517857,36.279375 63.164881,36.469256 63.2892857,36.5805655 C66.222619,39.1996131 69.8303571,40.5811607 73.7261905,40.5811607 C79.2327381,40.5811607 82.791369,37.5725298 82.791369,32.9138988 C82.8011905,28.9830357 80.4473214,26.8059524 74.6821429,25.4034524 L74.6723214,25.3991964 Z M95.2514881,20.730744 C92.864881,20.730744 90.9071429,21.6709821 89.289881,23.597619 L89.289881,21.4290476 C89.289881,21.2578274 89.152381,21.1183631 88.9821429,21.1183631 L84.7425595,21.1183631 C84.5723214,21.1183631 84.4348214,21.2578274 84.4348214,21.4290476 L84.4348214,45.5246131 C84.4348214,45.6948512 84.5723214,45.835625 84.7425595,45.835625 L88.9821429,45.835625 C89.152381,45.835625 89.289881,45.6948512 89.289881,45.5246131 L89.289881,37.9195536 C90.9071429,39.7299702 92.864881,40.6171726 95.2514881,40.6171726 C99.6875,40.6171726 104.179167,37.2025893 104.179167,30.6749405 C104.185714,24.1459821 99.6940476,20.7304167 95.2547619,20.7304167 L95.2514881,20.730744 Z M99.2488095,30.6749405 C99.2488095,33.9975298 97.2026786,36.3186607 94.2693452,36.3186607 C91.3720238,36.3186607 89.185119,33.8927679 89.185119,30.6749405 C89.185119,27.4567857 91.3720238,25.0315476 94.2693452,25.0315476 C97.1535714,25.0312202 99.2488095,27.4040774 99.2488095,30.6746131 L99.2488095,30.6749405 Z M115.686607,20.730744 C109.97381,20.730744 105.498512,25.1294345 105.498512,30.7459821 C105.498512,36.3022917 109.944345,40.6531845 115.617857,40.6531845 C121.350298,40.6531845 125.83869,36.2695536 125.83869,30.6749405 C125.83869,25.0993155 121.379762,20.7313988 115.686607,20.7313988 L115.686607,20.730744 Z M115.686607,36.3513988 C112.648512,36.3513988 110.356845,33.9091369 110.356845,30.6733036 C110.356845,27.4227381 112.56994,25.0639583 115.617857,25.0639583 C118.675595,25.0639583 120.980357,27.5052381 120.980357,30.7443452 C120.980357,33.994256 118.754167,36.3513988 115.686607,36.3513988 Z M138.036905,21.1183631 L133.371726,21.1183631 L133.371726,16.3497321 C133.371726,16.1788393 133.234226,16.039375 133.063988,16.039375 L128.824405,16.039375 C128.654167,16.039375 128.513393,16.1788393 128.513393,16.3497321 L128.513393,21.1183631 L126.477083,21.1183631 C126.306845,21.1183631 126.169345,21.2578274 126.169345,21.4290476 L126.169345,25.0718155 C126.169345,25.2427083 126.306845,25.3825 126.477083,25.3825 L128.513393,25.3825 L128.513393,34.8094345 C128.513393,38.616875 130.408929,40.5484226 134.150893,40.5484226 C135.66994,40.5484226 136.930357,40.2341369 138.11875,39.5597321 C138.216964,39.5073512 138.275893,39.4025893 138.275893,39.2912798 L138.275893,35.8210417 C138.275893,35.7162798 138.220238,35.6147917 138.128571,35.5591369 C138.036905,35.5002083 137.922321,35.4969345 137.827381,35.5460417 C137.012202,35.9552679 136.223214,36.1451488 135.339286,36.1451488 C133.980655,36.1451488 133.371726,35.5263988 133.371726,34.1448512 L133.371726,25.3841369 L138.036905,25.3841369 C138.207143,25.3841369 138.344643,25.2446726 138.344643,25.0734524 L138.344643,21.4310119 C138.35119,21.2597917 138.21369,21.1203274 138.040179,21.1203274 L138.036905,21.1183631 Z M154.288095,21.1370238 L154.288095,20.5513393 C154.288095,18.8283333 154.949405,18.0599702 156.429167,18.0599702 C157.313095,18.0599702 158.023512,18.2354464 158.819048,18.500625 C158.917262,18.5313988 159.01875,18.5160119 159.097321,18.4574107 C159.179167,18.3988095 159.225,18.3048512 159.225,18.2053274 L159.225,14.6336012 C159.225,14.4970833 159.139881,14.3762798 159.005655,14.3360119 C158.16756,14.0862202 157.09375,13.829881 155.483036,13.829881 C151.570833,13.829881 149.498512,16.0344643 149.498512,20.203006 L149.498512,21.1000298 L147.462202,21.1000298 C147.291964,21.1000298 147.15119,21.239494 147.15119,21.4103869 L147.15119,25.0718155 C147.15119,25.2427083 147.291964,25.3825 147.462202,25.3825 L149.498512,25.3825 L149.498512,39.9198512 C149.498512,40.0933631 149.639286,40.2308631 149.809524,40.2308631 L154.045833,40.2308631 C154.219345,40.2308631 154.356845,40.0933631 154.356845,39.9198512 L154.356845,25.3834821 L158.314881,25.3834821 L164.377976,39.9198512 C163.690476,41.4454464 163.012798,41.7499107 162.089583,41.7499107 C161.343155,41.7499107 160.554167,41.5272917 159.752083,41.0853274 C159.676786,41.0460417 159.585119,41.039494 159.506548,41.0624107 C159.424702,41.091875 159.355952,41.1508036 159.323214,41.229375 L157.886012,44.3820536 C157.817262,44.5326488 157.87619,44.7061607 158.020238,44.7847321 C159.519643,45.5966369 160.871726,45.9436607 162.544643,45.9436607 C165.674405,45.9436607 167.40625,44.4835417 168.928571,40.5615179 L176.281548,21.5613095 C176.320833,21.4657143 176.307738,21.3576786 176.24881,21.2728869 C176.193155,21.18875 176.098214,21.138006 175.996726,21.138006 L171.583631,21.138006 C171.449405,21.138006 171.331548,21.2221429 171.288988,21.3462202 L166.767857,34.2561607 L161.817857,21.3377083 C161.772024,21.2175595 161.65744,21.138006 161.529762,21.138006 L154.288095,21.138006 L154.288095,21.1370238 Z M144.866071,21.1183631 L140.626488,21.1183631 C140.45625,21.1183631 140.315476,21.2578274 140.315476,21.4290476 L140.315476,39.9198512 C140.315476,40.0933631 140.45625,40.2308631 140.626488,40.2308631 L144.866071,40.2308631 C145.03631,40.2308631 145.177083,40.0933631 145.177083,39.9198512 L145.177083,21.4303571 C145.177083,21.2591369 145.039583,21.1196726 144.866071,21.1196726 L144.866071,21.1183631 Z M142.770833,12.6984524 C141.091369,12.6984524 139.729464,14.0577381 139.729464,15.736875 C139.729464,17.416994 141.091369,18.7779167 142.770833,18.7779167 C144.450298,18.7779167 145.808929,17.416994 145.808929,15.736875 C145.808929,14.0580655 144.447024,12.6984524 142.770833,12.6984524 Z" id="Shape"></path>
            </g>
        </g>
    </g>
</svg>