<?xml version="1.0" encoding="UTF-8"?>
<svg width="200px" height="76px" viewBox="0 0 200 76" version="1.1" xmlns="http://www.w3.org/2000/svg" xmlns:xlink="http://www.w3.org/1999/xlink">
    <!-- Generator: Sketch 50 (54983) - http://www.bohemiancoding.com/sketch -->
    <title>Slice</title>
    <desc>Created with Sketch.</desc>
    <defs></defs>
    <g id="Page-1" stroke="none" stroke-width="1" fill="none" fill-rule="evenodd">
        <g id="logo-1" fill="#434E5E">
            <g id="airbnb" transform="translate(12.000000, 11.000000)">
                <path d="M48.5393333,43.78 C48.1425044,46.6165918 46.2667613,49.0279622 43.615,50.1105 C42.317,50.6531667 40.909,50.8145 39.5028333,50.6531667 C38.0497294,50.4699259 36.6499323,49.9893892 35.3906667,49.2415 C33.44,48.1598333 31.4966667,46.4731667 29.2233333,43.9981667 C32.7928333,39.6165 34.9561667,35.6015 35.7683333,32.0265 C36.1204714,30.5192989 36.2122388,28.9629735 36.0396667,27.4248333 C35.8390378,26.1011022 35.3386402,24.8407023 34.5766667,23.7398333 C32.8991667,21.3015 30.085,19.8898333 26.95,19.8898333 C23.8095,19.8898333 20.9953333,21.3565 19.3178333,23.7215 C18.558772,24.8171521 18.0585188,26.0709196 17.8548333,27.3881667 C17.6223677,28.9233536 17.7097515,30.4900209 18.1115,31.9898333 C18.9181667,35.5648333 21.1365,39.6165 24.6565,43.9981667 C22.4381667,46.4731667 20.4215,48.1598333 18.4781667,49.2415 C17.215095,49.991194 15.8107319,50.4717983 14.3531667,50.6531667 C12.9614247,50.8106943 11.5522411,50.6282553 10.2465,50.1215 C7.59436431,49.0407597 5.71630962,46.6321022 5.31483333,43.7965 C5.1368467,42.3655675 5.30664892,40.9128151 5.80983333,39.5615 C5.9565,39.0115 6.2315,38.4798333 6.5065,37.8198333 C6.87316667,36.9581667 7.31316667,36.0415 7.75316667,35.1065 L7.80816667,34.9965 C11.5955868,26.815965 15.5688393,18.7227552 19.7248333,10.7231667 L19.8898333,10.3931667 C20.3115,9.56816667 20.7515,8.7065 21.1915,7.89983333 C21.5974891,7.04922547 22.1020626,6.24929175 22.6948333,5.5165 C23.8315,4.23316667 25.3531667,3.51816667 27.0215,3.51816667 C28.6898333,3.51816667 30.2115,4.23316667 31.3481667,5.5165 C31.9348333,6.2315 32.4298333,7.03816667 32.8698333,7.89983333 C33.3098333,8.72483333 33.7498333,9.5865 34.1715,10.3931667 L34.3365,10.7231667 C38.4372207,18.7695966 42.3857016,26.89271 46.1798333,35.0881667 L46.1798333,35.1431667 C46.6015,36.0048333 46.9865,36.9765 47.4265,37.8381667 C47.6831667,38.4798333 47.9581667,39.0298333 48.1231667,39.5615 C48.5448333,40.9731667 48.7098333,42.3298333 48.4898333,43.7231667 L48.5393333,43.78 Z M26.95,41.2353333 C24.0258333,37.5558333 22.132,34.0926667 21.4811667,31.1703333 C21.2098333,29.9236667 21.1566667,28.842 21.3198333,27.8703333 C21.4256511,27.0556805 21.7207499,26.277122 22.1815,25.597 C23.2081667,24.1358333 24.9315,23.2136667 26.9481667,23.2136667 C28.9465,23.2136667 30.7248333,24.0808333 31.6965,25.597 C32.1181667,26.246 32.4481667,27.005 32.5581667,27.8703333 C32.7048333,28.842 32.6681667,29.9786667 32.3931667,31.1703333 C31.7331667,34.0376667 29.8448333,37.5008333 26.9298333,41.2353333 L26.95,41.2353333 Z M51.3516667,38.4211667 C51.084,37.7721667 50.8126667,37.07 50.5413333,36.4741667 C50.1086667,35.5025 49.676,34.5785 49.2983333,33.715 L49.2433333,33.66 C45.4537078,25.411567 41.4656589,17.2557503 37.2826667,9.19966667 L37.1213333,8.87516667 C36.6767325,8.03738772 36.2428085,7.19398613 35.8196667,6.34516667 C35.2806667,5.3735 34.7416667,4.34683333 33.8763333,3.37516667 C32.1383333,1.19166667 29.6505,0 27.0013333,0 C24.2935,0 21.8588333,1.19166667 20.0713333,3.245 C19.261,4.22033333 18.6651667,5.24883333 18.1243333,6.22416667 C17.6916667,7.0895 17.2571667,7.95666667 16.8263333,8.767 L16.6613333,9.0915 C12.4996667,17.1948333 8.44066667,25.4265 4.708,33.5481667 L4.653,33.6581667 C4.2735,34.5198333 3.84083333,35.4365 3.40633333,36.4081667 C3.13133333,36.9948333 2.8655,37.6548333 2.59416667,38.3515 C1.88833333,40.3498333 1.67383333,42.2565 1.94333333,44.1998333 C2.53376785,48.2296067 5.21153232,51.6465458 8.98333333,53.1831667 C10.3704575,53.76418 11.8611604,54.0573307 13.365,54.0448333 C13.7976667,54.0448333 14.3366667,53.9898333 14.7711667,53.9348333 C16.6814378,53.6882934 18.5222387,53.0584801 20.1831667,52.0831667 C22.4015,50.8365 24.5098333,49.0398333 26.8931667,46.4548333 C29.2581667,49.0398333 31.4398333,50.8365 33.6031667,52.0831667 C35.6773369,53.2931454 38.0227499,53.961462 40.4231667,54.0265 C41.9265,54.0265 43.4481667,53.7515 44.8048333,53.1465 C48.5815,51.6431667 51.2398333,48.1781667 51.8265,44.1631667 C52.2481667,42.2748333 52.0281667,40.3865 51.3315,38.3698333 L51.3516667,38.4211667 Z M105.306667,19.3728333 C106.876,19.3728333 107.69,19.6441667 107.69,19.6441667 L107.69,24.4603333 C107.69,24.4603333 103.359667,22.9991667 100.65,26.0828333 L100.65,40.315 L95.4616667,40.315 L95.4616667,19.9136667 L99.8433333,19.9136667 C100.276,19.9136667 100.602333,20.2931667 100.602333,20.6708333 L100.602333,21.538 C101.577667,20.4013333 103.686,19.3746667 105.310333,19.3746667 L105.306667,19.3728333 Z M119.3775,35.8783333 C117.3755,35.8783333 115.8025,34.8516667 114.995833,33.66 L114.995833,26.4091667 C115.8025,25.3275 117.536833,24.1908333 119.3775,24.1908333 C122.8425,24.1908333 125.491667,26.3541667 125.491667,30.0336667 C125.491667,33.715 122.840667,35.8783333 119.3775,35.8783333 Z M120.242833,19.3728333 C116.6715,19.3728333 114.994,21.5361667 114.994,21.5361667 L114.994,10.12 L109.798333,10.12 L109.798333,40.26 L114.18,40.26 C114.594515,40.2522552 114.929248,39.9191393 114.939,39.5046667 L114.939,38.5843333 C114.939,38.5843333 116.6165,40.8026667 120.189667,40.8026667 C126.085667,40.8026667 130.687333,36.256 130.687333,30.0886667 C130.742333,23.9195 126.140667,19.3728333 120.242833,19.3728333 Z M151.47,28.1966667 L151.47,40.315 L146.270667,40.315 L146.270667,28.7888333 C146.270667,25.4338333 145.189,24.0808333 142.266667,24.0808333 C140.699167,24.0808333 139.076667,24.893 138.046333,26.0828333 L138.046333,40.2618333 L132.850667,40.2618333 L132.850667,19.9283333 L136.964667,19.9283333 C137.397333,19.9283333 137.721833,20.3078333 137.721833,20.6855 L137.721833,21.5526667 C139.2435,19.9833333 141.241833,19.3893333 143.2585,19.3893333 C145.531833,19.3893333 147.420167,20.0365 148.941833,21.3326667 C150.775167,22.8506667 151.490167,24.7976667 151.490167,28.2076667 L151.47,28.1966667 Z M163.753333,35.8783333 C161.7495,35.8783333 160.178333,34.8516667 159.368,33.66 L159.368,26.4091667 C160.178333,25.3275 161.910833,24.1908333 163.753333,24.1908333 C167.214667,24.1908333 169.8675,26.3541667 169.8675,30.0336667 C169.8675,33.715 167.214667,35.8783333 163.753333,35.8783333 Z M164.615,19.3728333 C161.0455,19.3728333 159.368,21.5361667 159.368,21.5361667 L159.368,10.12 L154.172333,10.12 L154.172333,40.26 L158.554,40.26 C158.96923,40.2532267 159.305048,39.9198367 159.314833,39.5046667 L159.314833,38.5843333 C159.314833,38.5843333 160.983167,40.8026667 164.558167,40.8026667 C170.4615,40.8026667 175.044833,36.256 175.044833,30.0886667 C175.044833,23.9195 170.443167,19.3728333 164.594833,19.3728333 L164.615,19.3728333 Z M87.0173333,40.26 L92.2111667,40.26 L92.2111667,19.9136667 L87.0173333,19.9136667 L87.0173333,40.26 Z M78.6298333,33.715 C77.8048333,34.9066667 76.1915,35.9333333 74.2481667,35.9333333 C70.7831667,35.9333333 68.1248333,33.77 68.1248333,30.0886667 C68.1248333,26.4091667 70.7648333,24.244 74.2298333,24.244 C76.1181667,24.244 77.8415,25.3256667 78.6115,26.4623333 L78.6115,33.715 L78.6298333,33.715 Z M78.6298333,20.6708333 L78.6298333,21.538 C78.6298333,21.538 76.9431667,19.3746667 73.3681667,19.3746667 C67.4648333,19.3746667 62.8631667,23.8663333 62.8631667,30.0886667 C62.8631667,36.2578333 67.3915,40.8026667 73.3498333,40.8026667 C76.9798333,40.8026667 78.5931667,38.5843333 78.5931667,38.5843333 L78.5931667,39.5046667 C78.5865384,39.7064777 78.6634156,39.9020921 78.8056731,40.0453905 C78.9479306,40.1886889 79.1429793,40.2669901 79.3448333,40.2618333 L83.7265,40.2618333 L83.7265,19.9283333 L79.3833333,19.9283333 C78.96884,19.9370829 78.6349162,20.2710067 78.6261667,20.6855 L78.6298333,20.6708333 Z M93.1333333,13.585 C93.134313,14.5181889 92.7635366,15.4133314 92.1029843,16.0725076 C91.442432,16.7316837 90.5465182,17.1005925 89.6133333,17.0976667 C88.6796614,17.1001056 87.7834743,16.7305366 87.1229223,16.0706727 C86.4623703,15.4108088 86.0918675,14.5150073 86.0933333,13.5813333 C86.0834218,12.6447679 86.4510942,11.7436718 87.113383,11.081383 C87.7756718,10.4190942 88.6767679,10.0514218 89.6133333,10.0613333 C91.6171667,10.1163333 93.1333333,11.6856667 93.1333333,13.5813333 L93.1333333,13.585 Z" id="Shape"></path>
            </g>
        </g>
    </g>
</svg>