<?xml version="1.0" encoding="UTF-8"?>
<svg width="200px" height="76px" viewBox="0 0 200 76" version="1.1" xmlns="http://www.w3.org/2000/svg" xmlns:xlink="http://www.w3.org/1999/xlink">
    <!-- Generator: Sketch 50 (54983) - http://www.bohemiancoding.com/sketch -->
    <title>Slice</title>
    <desc>Created with Sketch.</desc>
    <defs></defs>
    <g id="Page-1" stroke="none" stroke-width="1" fill="none" fill-rule="evenodd">
        <g id="Group-10" transform="translate(0.000000, -21.000000)">
            <g id="Group-7">
                <g id="Rectangle" opacity="0" fill="#D8D8D8">
                    <rect x="0" y="0" width="200" height="118"></rect>
                </g>
                <g id="logo-6" transform="translate(5.882353, 35.294118)" fill-rule="nonzero">
                    <path d="M3.90265082,9.00204906 L8.28840744,9.00204906 C8.53956028,9.00204906 8.74152904,8.79848159 8.74201203,8.55045133 C8.74201203,8.54884907 8.68880303,4.81036979 8.68880303,3.77074168 L8.68880303,3.75840425 C8.68880303,2.9045585 8.86887641,2.16014729 9.18249548,1.53630632 L9.33238221,1.2561507 C9.31309211,1.25975992 9.29548076,1.26945045 9.28215165,1.28378973 L0.766138134,9.68829814 C0.750536088,9.70104643 0.739379525,9.71837424 0.734261042,9.73780806 C0.910390027,9.65104553 1.15123917,9.53247809 1.1852897,9.51757706 C1.92691508,9.18454677 2.82615498,9.00204906 3.90265082,9.00204906 Z M38.0069537,8.08691675 C37.6588011,6.23213753 36.5507502,5.3180467 35.5489562,4.9586592 C34.4681135,4.56987016 32.2765634,4.16714146 29.5228978,3.8441253 C27.3075203,3.58447865 24.7036611,3.60514784 23.1308163,3.65353617 C22.9419687,2.36675905 22.035162,1.19117896 21.0204078,0.78420425 C18.3166509,-0.298845174 14.1394639,-0.0371956869 13.0668319,0.261946746 C12.2146026,0.499001502 11.27125,0.984807532 10.746244,1.73346475 C10.394147,2.23353091 10.1663385,2.87419563 10.1645675,3.76921953 C10.1645675,4.27577486 10.1787351,5.46905995 10.1916952,6.52927714 C10.2045749,7.59277896 10.2185815,8.54396217 10.2185815,8.55045133 C10.2180985,9.49730843 9.44701095,10.2679166 8.49142266,10.2691184 L4.10783948,10.2691184 C3.17277811,10.2691184 2.45836095,10.4254992 1.91258649,10.6722476 C1.36600705,10.9192364 0.978893576,11.2521866 0.684754951,11.6461029 C0.0992951221,12.4283274 -0.00237348284,13.3936106 4.14483968e-05,14.3786817 C4.14483968e-05,14.3786817 0.00865470314,15.1836584 0.203539654,16.7416985 C0.36558154,17.947241 1.67922363,26.3688937 2.92693811,28.9302707 C3.41072933,29.9267178 3.73296165,30.3417839 4.68339809,30.7811243 C6.80105129,31.6834385 11.638078,32.687256 13.905135,32.974702 C16.1680866,33.2628688 17.5883881,33.8686043 18.4348216,32.10235 C18.4376389,32.0978638 18.6042692,31.6629295 18.8336876,31.0247483 C19.5685512,28.8085788 19.6707028,26.842202 19.6707028,25.4192325 C19.6707028,25.2744681 19.8840217,25.2678988 19.8840217,25.4192325 C19.8840217,26.4237711 19.6911492,29.9788714 22.3895934,30.9325381 C23.4547391,31.308509 25.6646427,31.6437024 27.9099652,31.9055922 C29.9401979,32.1376799 31.413467,32.932883 31.413467,38.1166832 C31.413467,41.2704167 30.7478314,41.7029475 27.2682375,41.7029475 C24.4475979,41.7029475 23.3725509,41.7756102 23.3725509,39.5454208 C23.3725509,37.7429554 25.163786,37.9317821 26.4913541,37.9317821 C27.0843002,37.9317821 26.6539595,37.4928423 26.6539595,36.3808719 C26.6539595,35.2745897 27.3491377,34.6352069 26.6916324,34.619024 C22.1010897,34.4933265 19.3999086,34.6138166 19.3999086,40.3275653 C19.3999086,45.5146502 21.3944808,46.4778504 27.9098847,46.4778504 C33.0182693,46.4778504 34.8190029,46.3114554 36.9282039,39.7979374 C37.345826,38.5121217 38.3551868,34.5881805 38.9660034,27.9995963 C39.3524729,23.8337937 38.6021538,11.2603581 38.0069537,8.08691675 Z M29.1020558,21.9845423 C28.4709538,21.9625913 27.8639205,22.0022472 27.2978606,22.0927751 C27.4571657,20.8123269 27.988209,19.2411481 29.8694405,19.306921 C31.9519161,19.3782218 32.2437203,21.3370679 32.2511261,22.6639016 C31.3730571,22.2742313 30.2860161,22.0259608 29.1020558,21.9845423 Z" id="Shape" fill="#434E5E"></path>
                    <path d="M186.295081,14.300877 C187.072478,14.300877 187.699012,14.9302456 187.699012,15.7032997 C187.699012,16.4789845 187.072478,17.1099779 186.295081,17.1099779 C185.516367,17.1099779 184.88991,16.4789845 184.88991,15.7032997 C184.889988,14.9302456 185.516289,14.300877 186.295081,14.300877 Z M186.295081,16.862223 C186.922466,16.862223 187.436084,16.3505419 187.436084,15.7032997 C187.436084,15.0566765 186.922311,14.5460012 186.295081,14.5460012 C185.666688,14.5460012 185.153225,15.0566765 185.153225,15.7032997 C185.153225,16.3505419 185.666688,16.862223 186.295081,16.862223 Z M185.695885,14.9010753 L186.31359,14.9010753 C186.71042,14.9010753 186.91627,15.0395766 186.91627,15.3632364 C186.91627,15.6560235 186.730014,15.7779666 186.501317,15.8202133 L186.933773,16.5062205 L186.631658,16.5062205 L186.209426,15.833135 L185.960826,15.833135 L185.960826,16.5062205 L185.696117,16.5062205 L185.696117,14.9010753 L185.695885,14.9010753 Z M185.960594,15.5878562 L186.313513,15.5878562 C186.569624,15.5878562 186.649471,15.5004223 186.649471,15.3499279 C186.649471,15.2009035 186.522692,15.1475148 186.313513,15.1475148 L185.960594,15.1475148 L185.960594,15.5878562 Z" id="Shape" fill="#434E5E"></path>
                    <g id="Group" transform="translate(44.945614, 13.790132)" fill="#353E4E">
                        <path d="M0.0483519572,15.3084154 L2.00652591,15.3084154 L2.10098089,2.81182182 L0.0483519572,2.81182182 L0.0483519572,0.414215819 L13.0309328,0.414215819 L13.189161,5.27369023 L10.6303625,5.27369023 L10.4096463,2.81182182 L5.51260504,2.81182182 L5.48087909,7.70250481 L10.4409707,7.70250481 L10.4409707,10.1014747 L5.44963506,10.1014747 L5.41855165,15.3082549 L10.3464353,15.3082549 L10.662731,12.5299683 L13.442326,12.5299683 L13.126432,17.7057005 L0.0483519572,17.7057005 L0.0483519572,15.3084154 Z M33.84886,2.81182182 L32.2066604,2.81182182 L26.04532,17.7057807 L22.5081573,17.7057807 L16.3158941,2.81182182 L14.5783561,2.81182182 L14.5783561,0.414215819 L21.9716274,0.414215819 L21.9716274,2.81182182 L20.2338484,2.81182182 L24.4981376,14.5509051 L24.5607863,14.5509051 L28.7942331,2.81182182 L26.7101192,2.81182182 L26.7101192,0.414215819 L33.84886,0.414215819 L33.84886,2.81182182 Z M35.5543507,15.3084154 L37.5125247,15.3084154 L37.6076223,2.81182182 L35.5544311,2.81182182 L35.5543507,0.414215819 L48.5369316,0.414215819 L48.6951598,5.27369023 L46.1367629,5.27369023 L45.9152436,2.81182182 L41.0185235,2.81182182 L40.9870385,7.70250481 L45.9471301,7.70250481 L45.9471301,10.1014747 L40.9561961,10.1014747 L40.9239079,15.3082549 L45.851631,15.3082549 L46.1686495,12.5299683 L48.9484052,12.5299683 L48.6321095,17.7057005 L35.5545114,17.7057005 L35.5543507,15.3084154 Z M52.2021224,15.3084154 L54.1602964,15.3084154 L54.254912,2.81182182 L52.2021224,2.81182182 L52.2021224,0.414215819 L60.1942512,0.414215819 C64.2073029,0.414215819 65.5010793,2.71787513 65.5010793,4.95775339 C65.5010793,6.945877 64.5226348,8.74466315 61.425941,9.53338205 L61.425941,9.59620037 C63.0368964,10.0376134 63.4490126,10.4482992 65.0596468,13.2253824 C66.1324659,15.0244092 66.5117316,15.3083352 67.1129183,15.3083352 C67.3651195,15.3083352 67.6174814,15.2446343 67.8390008,15.2136665 L67.8390008,17.705861 L66.0693353,17.7057005 C63.7313334,17.7057005 63.4488519,17.4227373 61.6168589,13.7927529 C59.9725711,10.5745776 59.593466,10.3541118 58.3298094,10.3541118 L57.6360953,10.3541118 L57.6038874,15.3084957 L59.6561951,15.3084957 L59.6561951,17.705861 L52.2018814,17.705861 L52.2018814,15.3083352 L52.2021224,15.3083352 L52.2021224,15.3084154 Z M57.6681426,7.95514196 L59.0256117,7.95514196 C60.8886881,7.95514196 62.1517023,6.945877 62.1517023,5.33715036 C62.1517023,3.75915095 61.3635332,2.81190204 59.7830186,2.81190204 L57.6972982,2.81190204 L57.6681426,7.95514196 Z M83.7292049,2.81182182 L81.67505,2.81182182 L81.67505,0.414215819 L88.466492,0.414135591 L88.466492,2.81182182 L86.5076755,2.81182182 L86.4130598,17.7057807 L83.8227765,17.7057807 L74.5666697,5.39964778 L74.5040209,5.39964778 L74.4084415,15.3084154 L76.4627572,15.3084154 L76.4627572,17.7057807 L69.6708332,17.7057807 L69.6708332,15.3084154 L71.6295694,15.3084154 L71.724185,2.81174158 L69.6710742,2.81174158 L69.6710742,0.414135591 L74.7888316,0.414135591 L83.5708161,12.1210476 L83.6339467,12.1210476 L83.7292049,2.81182182 Z M98.2907744,0.0659472019 C104.26208,0.0659472019 106.883688,4.01050447 106.883688,8.8078826 C106.883688,14.266578 103.629007,18.0522843 98.2907744,18.0522843 C92.3199502,18.0522843 89.6980211,14.1085294 89.6980211,9.28178786 C89.6979408,3.85446151 92.9506942,0.0659472019 98.2907744,0.0659472019 Z M98.2907744,15.2763243 C101.511962,15.2763243 103.343955,12.530209 103.343955,9.02786706 C103.343955,5.08483413 101.197594,2.84423382 98.2907744,2.84423382 C95.0681405,2.84423382 93.2363081,5.58906547 93.2363081,9.1549478 C93.2363081,13.0362856 95.3845165,15.2763243 98.2907744,15.2763243 Z M112.316376,15.3084154 L114.273586,15.3084154 L114.368041,2.81182182 L110.895294,2.81182182 L110.766222,5.27369023 L108.146702,5.27369023 L108.334327,0.414215819 L123.847194,0.414215819 L124.036505,5.27369023 L121.413371,5.27369023 L121.28727,2.81182182 L117.812355,2.81182182 L117.717418,15.3084154 L119.769806,15.3084154 L119.769806,17.705861 L112.316617,17.705861 L112.316617,15.3084154 L112.316376,15.3084154 Z M125.961186,15.3084154 L127.920082,15.3084154 L128.015662,2.81182182 L125.961186,2.81182182 L125.961186,0.414215819 L138.946497,0.414215819 L139.103199,5.27369023 L136.545205,5.27369023 L136.324167,2.81182182 L131.427688,2.81182182 L131.396042,7.70250481 L136.353965,7.70250481 L136.353965,10.1014747 L131.364155,10.1014747 L131.331948,15.3082549 L136.259671,15.3082549 L136.577493,12.5299683 L139.355481,12.5299683 L139.040873,17.7057005 L125.961186,17.7057005 L125.961186,15.3084154 Z" id="Shape"></path>
                    </g>
                </g>
            </g>
        </g>
    </g>
</svg>